<svg width="186" height="47" viewBox="0 0 186 47" fill="none" xmlns="http://www.w3.org/2000/svg">
<path d="M48.4917 21.8779C48.2693 21.7366 48.0319 21.6209 47.7838 21.533C47.7633 21.3748 47.7397 21.2688 47.7397 21.2245C47.7397 20.7396 48.2274 20.3615 49.1941 20.0839C49.8276 19.9115 50.4799 19.819 51.1361 19.8086C51.3845 19.8041 51.6296 19.8657 51.8467 19.9873C52.0637 20.1088 52.2449 20.286 52.3718 20.5007V20.81C52.3767 20.9616 52.3893 21.1129 52.4096 21.2633V22.0543C52.4096 22.7211 52.3537 23.7091 52.2522 25.0127C52.1508 26.3163 52.0949 27.2964 52.0949 27.9632C52.5244 27.9632 53.0726 27.9917 53.753 28.0423C54.6465 28.1079 55.2168 28.1467 55.452 28.1467C56.5617 28.2109 57.6741 28.0814 58.7398 27.7638C58.819 27.7322 58.8912 27.6852 58.9524 27.6255C59.0135 27.5657 59.0624 27.4945 59.0961 27.4158C59.0961 27.4815 59.1488 27.1429 59.2644 26.378L59.3769 25.587C59.3989 25.3275 59.4155 25.1456 59.4335 25.0333C59.4398 24.913 59.4705 24.6805 59.5122 24.3372C59.701 22.4925 59.8001 21.5623 59.8001 21.5346C59.9873 20.5909 60.8737 20.1179 62.45 20.1179C63.0431 20.1179 63.3349 20.2887 63.3349 20.6376V20.848C62.6967 24.2325 62.2235 26.7661 61.9151 28.4489L60.8572 35.712C60.7965 36.0807 60.6639 36.4336 60.4671 36.7506C60.2703 37.0676 60.0131 37.3423 59.7104 37.559C59.1013 38.0411 58.3492 38.304 57.5741 38.3057C57.5771 38.2015 57.5873 38.0976 57.6048 37.9949C57.6496 37.1888 57.6764 36.7728 57.6764 36.7451C57.7015 36.4975 57.77 36.0569 57.8935 35.4328C58.2679 33.1048 58.5487 31.3487 58.7374 30.1812L58.0295 29.8331H52.0241C51.9046 29.8331 51.7882 29.9526 51.667 30.1812C51.5167 30.5138 51.3979 30.86 51.3123 31.2151C51.107 32.3699 50.9749 33.2329 50.9253 33.8104L50.606 36.4002C50.1608 37.6468 49.0659 38.2709 47.3213 38.2725C47.4035 35.8587 47.663 33.4543 48.0976 31.079C48.5362 28.7068 48.7978 26.3049 48.8803 23.8934C48.9462 23.198 48.8113 22.4981 48.4917 21.8779Z" fill="#221F1F"/>
<path d="M66.9177 28.7298C67.6356 27.7816 68.5597 27.0112 69.6193 26.4776C70.6789 25.944 71.8459 25.6613 73.0309 25.6511C74.238 25.7148 75.429 25.9584 76.5649 26.3741C76.8284 26.4706 76.9535 26.6984 76.9535 27.0678V27.2403C76.9321 27.2951 76.9196 27.3531 76.9165 27.4119C76.609 28.354 76.3054 29.304 76.0002 30.2509C75.6759 31.1848 75.4971 32.1635 75.47 33.1523C75.5217 33.8845 75.8583 34.5666 76.4068 35.0508C76.8873 35.4328 77.2209 35.9707 77.3507 36.5727C77.3635 36.7492 77.3367 36.9263 77.272 37.0908C76.3986 37.6186 75.3928 37.8827 74.3743 37.8518C73.1158 37.8518 72.4418 36.9089 72.3222 35.0176C71.5442 35.9073 70.5864 36.6198 69.5126 37.1074C68.4711 37.7154 67.305 38.0756 66.1036 38.1603C65.0386 38.1603 64.5093 37.5053 64.5093 36.1922V35.1196C64.5114 32.7658 65.3678 30.4936 66.9177 28.7298ZM67.8978 34.327C68.0913 35.0199 68.4334 35.3617 68.9282 35.3617C69.5226 35.2986 70.1012 35.1305 70.6374 34.8649C71.4326 34.5255 71.877 34.236 71.9682 33.9782C72.0411 33.5874 72.0996 33.242 72.1436 32.9419C72.2404 32.3226 72.301 31.9714 72.3214 31.9081L73.3833 28.7954C73.3872 28.7135 73.3993 28.6321 73.4195 28.5526V28.2773C73.4195 27.4467 72.625 27.0314 71.0456 27.0314C70.8305 27.005 70.6123 27.0251 70.4057 27.0906C70.199 27.1561 70.0088 27.2654 69.8477 27.4111C68.4804 28.8736 67.7107 30.8002 67.6917 32.8075C67.6837 33.3215 67.7532 33.8339 67.8978 34.327Z" fill="#221F1F"/>
<path d="M79.822 35.9193C79.8 35.5515 79.7866 35.2755 79.7866 35.0888V34.149C79.7866 33.9228 79.8 33.695 79.822 33.4624V33.0472L79.8637 32.601C79.8905 32.479 79.9365 32.3621 79.9998 32.2546C80.4009 31.492 80.7132 30.9138 80.9201 30.5238C82.8865 27.5045 85.1061 25.9937 87.6058 25.9937H88.1061C88.9949 25.9937 89.4432 26.2199 89.4432 26.689C89.4432 27.6548 89.1624 28.1429 88.5937 28.1429C88.1781 28.0998 87.7762 27.9694 87.4139 27.76C87.0521 27.5498 86.6499 27.4195 86.2341 27.3779C85.966 27.3679 85.6992 27.4187 85.4533 27.5265C85.2074 27.6342 84.9887 27.7962 84.8135 28.0005C83.8497 29.1306 83.367 30.7899 83.3655 32.9783C83.3614 33.5046 83.4345 34.0287 83.5826 34.5335C83.7753 35.319 84.0671 35.7105 84.4698 35.7105H87.1882C87.1882 36.3552 86.54 36.9398 85.2462 37.4776C84.3335 37.891 83.3502 38.1238 82.35 38.1635C81.0019 38.1635 80.172 37.6983 79.8724 36.7396C79.8637 36.5648 79.8535 36.2895 79.822 35.9193Z" fill="#221F1F"/>
<path d="M95.1041 20.116C95.6917 20.116 95.9851 20.2995 95.9851 20.6697V20.8453C95.6768 22.1805 95.3763 23.5253 95.0664 24.889C94.7605 26.2278 94.5926 27.5948 94.5653 28.9683V29.4785C94.9036 29.1383 95.2693 28.7871 95.6744 28.4145C97.1311 27.006 98.4845 26.3017 99.7346 26.3017C100.168 26.2811 100.598 26.3913 100.97 26.6181C101.425 26.9915 101.726 27.5213 101.816 28.1052C101.865 28.6819 101.924 29.2601 101.996 29.8328C101.996 29.7822 102.055 30.5954 102.174 32.2557C102.243 33.6851 102.302 34.4896 102.348 34.6747C102.361 34.9137 102.447 35.1431 102.593 35.332C103.007 35.7847 103.311 36.3279 103.482 36.9188C103.488 37.0432 103.465 37.1674 103.415 37.2814C103.365 37.3954 103.29 37.4961 103.194 37.5753C102.468 38.0322 101.615 38.2391 100.762 38.1646H100.336C100.122 38.1433 99.9722 38.1314 99.8723 38.1314C99.6925 37.8109 99.5738 37.4595 99.5223 37.0952L99.3052 35.6405C98.8081 32.5065 98.5304 30.5701 98.458 29.8328C98.1533 29.4406 97.7965 29.0922 97.3977 28.7974L97.3277 28.7642H97.1578C97.1248 28.7817 97.0888 28.7929 97.0517 28.7974C96.9541 28.8897 96.7892 29.0394 96.5569 29.2467C95.6563 30.1223 94.998 30.7765 94.5661 31.2147C94.2453 31.7158 94.0425 32.284 93.9731 32.8759L93.7214 34.0157C93.5129 35.0978 93.321 36.1238 93.1535 37.0936C92.6154 37.8777 91.6511 38.2701 90.2605 38.2706V37.921C90.2605 37.7628 90.2715 37.5081 90.2935 37.16C90.3171 36.8238 90.3321 36.5644 90.3321 36.3983C90.4705 35.1327 90.6467 33.867 90.8599 32.6014L91.4631 28.7966C92.0027 25.3343 92.3339 22.8046 92.4456 21.1862C92.8011 20.4751 93.6899 20.116 95.1041 20.116Z" fill="#221F1F"/>
<path d="M108.085 27.1017C108.906 26.7305 109.804 26.5642 110.703 26.6169C110.685 27.3964 110.591 28.1723 110.42 28.9329C110.248 29.6931 110.085 30.4557 109.922 31.2135C109.851 31.609 109.776 32.3944 109.67 33.5691C109.627 34.3486 109.522 35.1233 109.356 35.886C108.889 37.4775 107.75 38.2709 105.96 38.2709C105.939 37.7607 105.962 37.2496 106.029 36.7435L106.386 35.3623C106.663 33.7049 106.851 32.4393 106.95 31.5655L107.231 29.2486C107.331 28.5366 107.396 28.0415 107.445 27.763C107.596 27.4892 107.817 27.2609 108.085 27.1017ZM108.778 22.3113C108.85 22.1728 108.958 22.0565 109.091 21.9747C109.223 21.8928 109.376 21.8484 109.531 21.8462C110.014 21.8443 110.493 21.9389 110.94 22.1247C111.49 22.3778 111.763 22.6966 111.763 23.0897C111.776 23.2664 111.749 23.4439 111.684 23.6086C110.925 23.8207 110.145 23.9475 109.359 23.9867C108.763 23.9867 108.469 23.7494 108.469 23.2606C108.475 22.9202 108.583 22.5896 108.778 22.3113Z" fill="#221F1F"/>
<path d="M121.518 21.878C121.301 21.7347 121.068 21.6189 120.823 21.5331C120.803 21.4313 120.789 21.3282 120.782 21.2246C120.782 20.7397 121.269 20.3616 122.237 20.0839C122.872 19.911 123.526 19.8185 124.184 19.8087C124.432 19.8062 124.676 19.8688 124.892 19.9902C125.108 20.1116 125.289 20.2876 125.417 20.5008V20.8101C125.417 20.928 125.428 21.0727 125.447 21.2633V22.0544C125.447 22.7212 125.397 23.7092 125.285 25.0128C125.184 26.3077 125.127 27.2964 125.127 27.9633C125.552 27.9633 126.103 27.9917 126.79 28.0424C127.694 28.108 128.249 28.1468 128.493 28.1468C129.599 28.2107 130.709 28.0812 131.771 27.7639C131.851 27.7335 131.924 27.6869 131.985 27.6271C132.047 27.5672 132.095 27.4953 132.128 27.4159C132.208 27.074 132.266 26.7274 132.303 26.3781L132.415 25.587C132.442 25.3276 132.454 25.1457 132.472 25.0333C132.486 24.7996 132.515 24.5671 132.559 24.3372C132.747 22.4926 132.843 21.5623 132.843 21.5347C133.023 20.591 133.911 20.1179 135.489 20.1179C136.082 20.1179 136.377 20.2888 136.377 20.6376V20.8481C135.737 24.2328 135.256 26.7688 134.956 28.4489L133.892 35.7121C133.832 36.0807 133.7 36.4336 133.503 36.7506C133.307 37.0676 133.05 37.3424 132.747 37.5591C132.137 38.0448 131.38 38.308 130.602 38.3058C130.602 38.2592 130.627 38.1603 130.639 37.995C130.688 37.1889 130.718 36.7728 130.718 36.7451C130.738 36.4976 130.806 36.057 130.919 35.4328C131.301 33.1049 131.588 31.3488 131.769 30.1813L131.065 29.8332H125.063C124.942 29.8332 124.818 29.9527 124.699 30.1813C124.548 30.5128 124.433 30.8594 124.356 31.2151C124.181 32.0729 124.049 32.9392 123.962 33.8105L123.648 36.4003C123.204 37.6469 122.102 38.2726 120.36 38.2726C120.439 35.8584 120.7 33.4537 121.139 31.0791C121.578 28.7071 121.838 26.305 121.915 23.8935C121.986 23.1968 121.848 22.4947 121.518 21.878Z" fill="#221F1F"/>
<path d="M139.952 28.7298C140.671 27.7823 141.597 27.0126 142.657 26.4791C143.717 25.9456 144.885 25.6624 146.07 25.6511C147.279 25.7161 148.472 25.9598 149.61 26.3741C149.74 26.4322 149.847 26.5314 149.916 26.6566C149.985 26.7819 150.011 26.9263 149.991 27.0678V27.2403C149.969 27.2949 149.958 27.3532 149.958 27.4119C149.655 28.354 149.339 29.304 149.033 30.2509C148.712 31.1856 148.536 32.164 148.509 33.1523C148.533 33.5159 148.629 33.8709 148.791 34.1969C148.953 34.5228 149.178 34.813 149.453 35.0508C149.922 35.4395 150.248 35.9754 150.379 36.5727C150.394 36.7483 150.371 36.925 150.311 37.0908C149.438 37.6182 148.433 37.8823 147.415 37.8518C146.163 37.8518 145.474 36.9089 145.356 35.0176C144.582 35.9084 143.626 36.6211 142.553 37.1074C141.51 37.7173 140.341 38.0775 139.137 38.1603C138.078 38.1603 137.548 37.5043 137.547 36.1922V35.1196C137.549 32.7664 138.404 30.4945 139.952 28.7298ZM140.945 34.3278C141.134 35.0207 141.471 35.3625 141.968 35.3625C142.566 35.2981 143.149 35.13 143.691 34.8657C144.478 34.5263 144.91 34.2368 145.015 33.979C145.085 33.5882 145.134 33.2425 145.191 32.9427C145.285 32.3234 145.341 31.9721 145.361 31.9089L146.429 28.7962C146.435 28.7147 146.446 28.6336 146.461 28.5534V28.2781C146.461 27.4475 145.671 27.0322 144.09 27.0322C143.875 27.006 143.658 27.0263 143.451 27.0918C143.245 27.1573 143.056 27.2665 142.895 27.4119C141.524 28.873 140.751 30.7997 140.73 32.8083C140.721 33.3228 140.794 33.8354 140.945 34.327V34.3278Z" fill="#221F1F"/>
<path d="M152.865 35.9193C152.839 35.5515 152.835 35.2755 152.835 35.0888V34.149C152.832 33.9198 152.842 33.6906 152.865 33.4624V33.0472L152.896 32.601C152.927 32.4792 152.975 32.3625 153.039 32.2546C153.44 31.492 153.747 30.9138 153.965 30.5238C155.917 27.5042 158.143 25.9942 160.641 25.9937H161.136C162.029 25.9937 162.473 26.2199 162.473 26.689C162.473 27.6548 162.197 28.1429 161.635 28.1429C161.216 28.1011 160.811 27.9706 160.445 27.76C160.081 27.5484 159.675 27.4181 159.256 27.3779C158.99 27.3682 158.725 27.4192 158.482 27.527C158.238 27.6348 158.022 27.7967 157.849 28.0005C156.879 29.1306 156.393 30.7899 156.391 32.9783C156.389 33.5046 156.462 34.0284 156.609 34.5335C156.792 35.319 157.092 35.7105 157.491 35.7105H160.213C160.213 36.3552 159.57 36.9398 158.274 37.4776C157.359 37.8916 156.373 38.1245 155.37 38.1635C154.026 38.1635 153.2 37.6983 152.894 36.7396C152.896 36.5648 152.89 36.2895 152.865 35.9193Z" fill="#221F1F"/>
<path d="M168.143 20.116C168.732 20.116 169.021 20.2995 169.021 20.6697V20.8453C168.718 22.1805 168.406 23.5253 168.107 24.889C167.803 26.2279 167.637 27.5949 167.612 28.9683V29.4785C167.944 29.1383 168.299 28.7871 168.706 28.4145C170.164 27.006 171.522 26.3017 172.78 26.3017C173.213 26.2819 173.642 26.3921 174.012 26.6181C174.464 26.9946 174.764 27.5229 174.858 28.1052C174.907 28.6819 174.963 29.2601 175.039 29.8328C175.039 29.7822 175.088 30.5954 175.212 32.2557C175.23 33.0647 175.291 33.8722 175.395 34.6747C175.398 34.9142 175.481 35.1458 175.631 35.332C176.041 35.7866 176.343 36.3293 176.513 36.9188C176.519 37.0423 176.498 37.1657 176.449 37.2794C176.401 37.3932 176.327 37.4944 176.234 37.5753C175.506 38.0315 174.651 38.2383 173.796 38.1646H173.371C173.152 38.1433 173 38.1314 172.914 38.1314C172.735 37.8101 172.613 37.4592 172.556 37.0952L172.343 35.6405C171.851 32.5065 171.565 30.5706 171.487 29.8328C171.187 29.4395 170.833 29.0909 170.436 28.7974L170.366 28.7642H170.187C170.154 28.7844 170.116 28.7958 170.078 28.7974C169.992 28.8899 169.822 29.0394 169.592 29.2467C168.69 30.1223 168.026 30.7765 167.608 31.2147C167.284 31.7155 167.077 32.2833 167.002 32.8759L166.756 34.0157C166.55 35.0978 166.351 36.1238 166.192 37.0936C165.642 37.8775 164.685 38.2706 163.291 38.2706V37.921C163.291 37.7628 163.303 37.5081 163.323 37.16C163.354 36.8238 163.36 36.5644 163.36 36.3983C163.498 35.1327 163.679 33.867 163.899 32.6014L164.493 28.7966C165.03 25.3343 165.368 22.8046 165.486 21.1862C165.841 20.4751 166.73 20.116 168.143 20.116Z" fill="#221F1F"/>
<path d="M181.127 27.1017C181.945 26.7309 182.84 26.5645 183.736 26.6168C183.716 27.3959 183.624 28.1713 183.459 28.9329C183.291 29.6931 183.128 30.4556 182.959 31.2134C182.881 31.6089 182.81 32.3944 182.715 33.5691C182.665 34.3479 182.56 35.1221 182.401 35.886C182.212 36.6263 181.765 37.274 181.142 37.7115C180.518 38.1491 179.76 38.3475 179.004 38.2709C178.983 37.7607 179.006 37.2498 179.071 36.7434L179.431 35.3623C179.704 33.7012 179.893 32.4356 179.986 31.5654L180.279 29.2486C180.358 28.5366 180.437 28.0415 180.48 27.763C180.637 27.4914 180.86 27.264 181.127 27.1017ZM181.822 22.3113C181.891 22.173 181.997 22.0566 182.128 21.9746C182.259 21.8926 182.409 21.8482 182.564 21.8462C183.051 21.8449 183.535 21.9395 183.986 22.1246C184.524 22.3778 184.791 22.6966 184.791 23.0897C184.804 23.265 184.783 23.4411 184.73 23.6086C183.97 23.8199 183.19 23.9467 182.402 23.9867C181.808 23.9867 181.508 23.7494 181.508 23.2605C181.512 22.9191 181.622 22.5874 181.822 22.3113Z" fill="#221F1F"/>
<path d="M108.907 24.5182L107.555 22.274L108.907 20.0347H111.619L112.968 22.274L111.619 24.5182H108.907Z" fill="#8BC53F"/>
<path d="M181.94 24.5182L180.595 22.274L181.94 20.0347H184.647L186 22.274L184.647 24.5182H181.94Z" fill="#8BC53F"/>
<path d="M33.4463 30.6702C33.2248 30.5031 32.9656 30.394 32.6918 30.3526C32.4181 30.3111 32.1384 30.3387 31.8779 30.4329C29.8556 27.7783 26.1934 27.321 26.1934 27.321L25.8103 29.9029L30.8632 32.4563C30.958 32.8039 31.1649 33.11 31.4515 33.3264C31.8016 33.5925 32.2424 33.7077 32.6769 33.6469C33.1115 33.5861 33.5042 33.3542 33.7687 33.0021C34.0333 32.6501 34.1479 32.2068 34.0874 31.7698C34.0269 31.3328 33.7963 30.9378 33.4463 30.6718V30.6702Z" fill="black"/>
<path fill-rule="evenodd" clip-rule="evenodd" d="M17.6292 22.5456C18.1185 22.4887 18.6139 22.5654 19.0635 22.7677C19.513 22.9699 19.9001 23.2902 20.184 23.6949C17.6292 28.4363 19.3188 34.3808 20.0125 36.7855L17.7166 37.181C15.5976 32.9364 14.4547 25.0721 17.6292 22.5456Z" fill="#8BC53F"/>
<path fill-rule="evenodd" clip-rule="evenodd" d="M10.3214 25.9112C10.4473 24.9003 11.7247 24.2881 14.5052 22.6831C13.0894 26.2514 13.5212 32.9545 15.7448 37.116C14.266 37.4577 13.6211 36.6256 12.4955 36.4832C11.6586 35.0863 9.06924 34.5824 10.3214 25.9112Z" fill="#8BC53F"/>
<path fill-rule="evenodd" clip-rule="evenodd" d="M6.26978 31.4001C8.42653 30.7404 9.0786 28.3665 9.02747 28.7557C8.58621 31.9989 9.40343 33.3436 9.72985 33.8333C8.50156 33.1357 7.34287 32.3209 6.26978 31.4001Z" fill="#8BC53F"/>
<path d="M34.4758 22.2473C33.5712 26.0125 25.7143 25.0483 26.9484 21.938C26.4104 23.5374 24.9749 23.3444 24.9859 24.3245C25.0861 24.8279 25.3073 25.299 25.6302 25.6966C25.9531 26.0943 26.3678 26.4064 26.8382 26.6058C27.7276 26.8958 28.6853 26.8958 29.5747 26.6058C30.0899 25.9089 36.0418 24.6061 34.4758 22.2473ZM26.504 23.9923C27.1898 25.2468 28.7685 25.2302 29.953 25.7815C28.5003 27.5487 24.4974 25.4477 26.504 23.9923Z" fill="black"/>
<path d="M34.3776 15.2895C32.8698 18.4172 37.973 17.5534 35.5236 15.0989L34.3776 15.2895Z" fill="black"/>
<path d="M32.6063 10.8932C31.8552 9.10156 32.921 5.70494 33.8066 3.96391C35.5371 4.35942 37.601 2.52425 36.8011 0.684345C36.2355 -0.312338 35.1336 0.716775 34.2841 1.55446C33.4346 2.39215 31.0324 7.99414 31.653 12.2411C30.3914 11.4916 28.9706 11.0546 27.5079 10.966C26.7512 8.17291 27.2011 6.23966 27.5566 4.23127C29.3885 3.64513 32.1399 1.07906 29.8597 0.0807975C27.5794 -0.917467 26.0496 7.6018 26.8 10.8885C25.4761 11.2539 24.3242 12.0804 23.5499 13.2204C23.9015 4.07623 12.0731 0.948548 8.92847 8.18082C-5.76765 7.97595 0.0403222 26.2524 9.4712 25.5041C8.71217 28.2355 7.61335 30.7248 4.18629 31.5459C6.16686 32.132 10.511 36.1117 11.646 36.7508C12.781 37.3899 16.9003 39.1104 20.5342 37.4841C20.6184 37.5442 22.2332 36.3593 22.6689 36.1006C23.4382 35.6244 24.1444 35.0522 24.7706 34.3975C25.1104 33.9166 25.9394 32.8946 25.8828 31.8267C27.6486 31.3956 28.1041 31.2469 29.0291 30.4084C29.9674 29.5636 31.4155 27.4951 30.861 27.6525C30.3064 27.8099 27.8673 28.4839 24.2161 26.568C26.3264 27.3954 28.4258 28.2292 31.0466 27.3899C32.3413 27.1265 34.9291 26.64 36.0908 26.2999C36.0977 26.3039 36.1051 26.3068 36.1128 26.3086C36.1844 26.2825 36.2387 26.2556 36.3102 26.2295C36.4086 26.1947 36.4959 26.1607 36.5627 26.1306C41.7218 24.0099 39.731 19.2076 39.5116 18.7251C41.8382 14.8183 38.795 8.25834 32.6063 10.8932ZM36.2033 0.926396C37.2659 1.39151 35.3042 4.09917 33.9553 3.38804C33.4078 3.08667 35.3648 0.925603 36.1994 0.929558L36.2033 0.926396ZM29.7118 0.695419C30.4299 1.41366 29.3114 2.98937 28.292 3.35166C27.2719 3.73293 29.0047 -0.0267823 29.7118 0.698581V0.695419ZM28.0718 12.0497C33.6706 12.5623 31.7238 19.9504 28.7302 20.6496C22.6901 22.0592 21.6236 11.4667 28.0718 12.0529V12.0497ZM9.34535 24.7281C5.16162 23.3929 0.93465 21.8805 0.457207 16.3394C-0.479589 5.5317 18.4325 7.28381 16.6722 21.5047C12.9832 21.6906 11.8096 23.6713 9.34535 24.7313V24.7281ZM6.26989 31.3822C8.42664 30.7217 9.08499 28.3486 9.02993 28.741C8.59261 31.977 9.40355 33.3289 9.73784 33.8145C8.50614 33.12 7.34467 32.3064 6.26989 31.3853V31.3822ZM12.4924 36.4652C11.6673 35.0723 9.07476 34.5715 10.327 25.8972C10.4505 24.8855 11.7247 24.2749 14.5036 22.6659C13.0878 26.2366 13.5228 32.9413 15.7417 37.102C14.2669 37.4469 13.625 36.614 12.4924 36.4684V36.4652ZM20.0143 36.7714L17.723 37.1574C15.5993 32.9254 14.4549 25.0548 17.6326 22.5307C18.1216 22.474 18.6167 22.5508 19.0661 22.7529C19.5155 22.9549 19.9025 23.2749 20.1865 23.6792C17.6365 28.4198 19.3182 34.369 20.0143 36.7745V36.7714ZM19.5423 22.2071C18.9329 21.8292 18.2131 21.6726 17.5028 21.7634C16.9844 14.0826 13.7171 10.2936 9.31232 8.10805C17.97 -2.85783 28.0781 16.0174 19.5431 22.2103L19.5423 22.2071ZM35.714 25.7375C34.8866 26.0127 32.2005 26.4351 31.3998 26.6384C30.7946 26.8905 30.1549 27.0487 29.5026 27.1075C28.8604 27.1181 28.2181 27.0933 27.5786 27.0331C26.8278 26.854 26.0878 26.6319 25.3621 26.3679C22.5793 25.8569 20.7678 20.6599 23.2384 18.4142C25.1725 21.1037 26.3351 22.0102 28.8576 21.4201C30.1727 21.1124 31.2755 18.9814 31.9826 18.9126C32.6325 19.4748 33.3958 19.8889 34.22 20.1263C35.0441 20.3638 35.9096 20.419 36.757 20.2881C37.3705 20.1018 37.9555 19.8311 38.4953 19.4837C38.5276 19.4623 38.5567 19.4465 38.5834 19.4251C40.3209 23.6808 36.5596 25.4108 35.7148 25.7406L35.714 25.7375ZM32.298 18.4601C32.8915 16.5345 32.7551 14.456 31.915 12.6256C41.1704 5.41701 42.6397 25.001 32.2988 18.4648L32.298 18.4601Z" fill="black"/>
<path d="M27.1286 15.7783L25.9787 15.9753C24.4708 19.0982 29.5748 18.2321 27.1286 15.7783Z" fill="black"/>
<path d="M34.5254 35.012C29.4757 35.5663 24.583 37.1111 20.1243 39.5588C20.1243 39.5588 21.577 47.0956 22.3471 46.9991C23.1171 46.9026 34.3445 46.1527 35.5558 45.4748C36.0339 45.2068 36.4346 44.8185 36.7184 44.3478C37.0021 43.8771 37.1594 43.3403 37.1746 42.7901C37.3988 40.1353 37.3746 37.4652 37.1022 34.815C37.0424 34.2993 34.5254 35.012 34.5254 35.012ZM36.6578 42.7568C36.6416 43.2784 36.4917 43.7869 36.2227 44.2332C35.9538 44.6794 35.5748 45.0482 35.1224 45.3039C33.9772 45.9367 23.3531 46.6486 22.6239 46.7428C21.8948 46.8369 20.5215 39.7027 20.5215 39.7027C24.7399 37.3863 29.3686 35.923 34.1463 35.3956C34.1463 35.3956 36.5256 34.7256 36.5917 35.2105C36.8419 37.7187 36.864 40.2446 36.6578 42.7568Z" fill="#8BC53F"/>
<path d="M32.1138 35.2763C29.5913 35.5927 23.0763 36.4066 23.0763 36.4066C21.4402 37.3638 19.3008 39.7621 20.6466 39.7234C21.9924 39.6846 34.3445 38.0084 34.3445 38.0084C35.3389 37.1848 36.2183 36.2302 36.9591 35.1703C37.5034 34.1 34.6411 34.9599 32.1138 35.2763ZM36.2307 35.2763C35.55 36.2477 34.7423 37.1225 33.8293 37.8771C33.8293 37.8771 22.4926 39.4149 21.2617 39.4528C20.0307 39.4908 21.9884 37.2918 23.4845 36.4098C23.4845 36.4098 29.4624 35.6655 31.7788 35.372C34.0952 35.0785 36.7286 34.2946 36.2307 35.2763Z" fill="#8BC53F"/>
<path d="M31.7788 35.3726C29.4647 35.6661 23.4845 36.4104 23.4845 36.4104C21.99 37.2924 20.0283 39.4954 21.2616 39.4535C22.495 39.4115 33.8293 37.8778 33.8293 37.8778C34.7422 37.1231 35.55 36.2483 36.2307 35.2769C36.7286 34.2944 34.1031 35.0863 31.7788 35.3726Z" fill="white"/>
<path d="M34.0488 38.282L34.9259 45.0752L36.3629 42.4182L34.9912 42.9632L34.0488 38.282Z" fill="#8BC53F"/>
<path d="M32.1453 38.3257L33.351 43.8407C33.351 43.8407 32.08 43.0378 32.1453 38.3257Z" fill="#8BC53F"/>
<path d="M24.5628 40.1013L25.8213 46.0941C25.8213 46.0941 24.5415 45.2042 24.5628 40.1013Z" fill="#8BC53F"/>
<path d="M25.4957 39.2312L26.4608 42.8699C26.4608 42.8699 25.2377 42.3818 25.4957 39.2312Z" fill="#8BC53F"/>
<path d="M30.8507 39.437L32.1234 45.4361C32.1234 45.4361 30.8358 44.5486 30.8507 39.437Z" fill="#8BC53F"/>
<path d="M29.5749 39.5999L30.8334 45.5958C30.8334 45.5958 29.5576 44.7138 29.5749 39.5999Z" fill="#8BC53F"/>
<path d="M28.2974 39.7629L29.5559 45.7565C29.5559 45.7565 28.2746 44.8737 28.2974 39.7629Z" fill="#8BC53F"/>
<path d="M21.6118 42.2657L31.1292 40.554C31.1292 40.554 29.6403 41.9208 21.6118 42.2657Z" fill="#8BC53F"/>
<path d="M22.7861 43.6887L33.8767 41.7808C33.8767 41.7808 32.125 43.1753 22.7861 43.6887Z" fill="#8BC53F"/>
<path d="M23.1802 45.2129L34.0756 43.3303C34.0756 43.3303 32.3452 44.7186 23.1802 45.2129Z" fill="#8BC53F"/>
<path d="M30.9176 33.4963C30.6511 33.4533 30.3783 33.4739 30.1212 33.5563C29.8641 33.6388 29.6298 33.7808 29.4373 33.9709L24.2176 32.1025L22.6626 34.1275C22.6626 34.1275 25.6987 36.6232 29.1124 36.0181C29.2482 36.2821 29.4489 36.5068 29.6955 36.6707C29.9421 36.8346 30.2264 36.9323 30.5211 36.9543C30.8159 36.9764 31.1114 36.9221 31.3794 36.7968C31.6474 36.6714 31.879 36.4791 32.0522 36.2381C32.2253 35.9972 32.3341 35.7156 32.3684 35.4204C32.4026 35.1251 32.361 34.8259 32.2477 34.5514C32.1343 34.2769 31.9529 34.0361 31.7207 33.8521C31.4886 33.6681 31.2134 33.547 30.9215 33.5003L30.9176 33.4963Z" fill="black"/>
<path d="M26.8061 38.952L27.6171 38.8523C27.6171 38.8523 27.4597 33.4481 28.6474 33.1317C28.6419 33.1001 27.5683 33.0051 27.5683 33.0051C26.8172 34.8625 26.5111 36.8714 26.6747 38.8697" fill="#8BC53F"/>
<path d="M29.2515 30.758C29.471 31.8805 28.2534 33.071 26.5214 33.4087C24.7894 33.7465 23.2178 33.1121 23.0015 31.9904C22.7852 30.8688 23.9996 29.6759 25.7261 29.3334C27.4526 28.9909 29.0258 29.63 29.2515 30.758Z" fill="black"/>
</svg>
