<svg width="70" height="115" viewBox="0 0 70 115" fill="none" xmlns="http://www.w3.org/2000/svg">
<rect width="70" height="115" fill="#8BC53F"/>
<path d="M35 115V45" stroke="white" stroke-width="2" stroke-miterlimit="10" stroke-linejoin="round"/>
<path d="M30 50L35 45L40 50" stroke="white" stroke-width="2" stroke-miterlimit="10" stroke-linecap="round" stroke-linejoin="round"/>
<path d="M26.289 27L27.498 27L27.498 18.485L30.384 18.485L30.384 17.458L23.403 17.458L23.403 18.485L26.289 18.485L26.289 27ZM33.7564 27.169C35.4854 27.169 37.0324 25.817 37.0324 23.477C37.0324 21.124 35.4854 19.759 33.7564 19.759C32.0274 19.759 30.4804 21.124 30.4804 23.477C30.4804 25.817 32.0274 27.169 33.7564 27.169ZM33.7564 26.181C32.5344 26.181 31.7154 25.102 31.7154 23.477C31.7154 21.852 32.5344 20.747 33.7564 20.747C34.9784 20.747 35.8104 21.852 35.8104 23.477C35.8104 25.102 34.9784 26.181 33.7564 26.181ZM38.8972 29.977L40.0802 29.977L40.0802 27.585L40.0542 26.35C40.6912 26.87 41.3672 27.169 42.0042 27.169C43.6292 27.169 45.0722 25.778 45.0722 23.36C45.0722 21.189 44.0842 19.759 42.2642 19.759C41.4452 19.759 40.6522 20.227 40.0152 20.747L39.9762 20.747L39.8722 19.941L38.8972 19.941L38.8972 29.977ZM41.8092 26.181C41.3412 26.181 40.7172 25.986 40.0802 25.44L40.0802 21.735C40.7692 21.098 41.3802 20.76 41.9782 20.76C43.3172 20.76 43.8372 21.813 43.8372 23.373C43.8372 25.128 42.9792 26.181 41.8092 26.181Z" fill="white"/>
</svg>
