<svg width="102" height="124" viewBox="0 0 102 124" fill="none" xmlns="http://www.w3.org/2000/svg">
<g filter="url(#filter0_d_3_1142)">
<path d="M32 30H102V94H32V30Z" fill="white"/>
</g>
<path d="M87.1451 67.8907C86.9786 67.7651 86.7837 67.6831 86.5779 67.6519C86.3721 67.6208 86.1618 67.6415 85.966 67.7123C84.4456 65.7165 81.6923 65.3728 81.6923 65.3728L81.4043 67.3139L85.2031 69.2336C85.2744 69.4949 85.43 69.725 85.6454 69.8877C85.9086 70.0877 86.24 70.1744 86.5667 70.1287C86.8934 70.0829 87.1887 69.9086 87.3875 69.6439C87.5864 69.3793 87.6726 69.046 87.6271 68.7174C87.5817 68.3889 87.4083 68.0919 87.1451 67.8919V67.8907Z" fill="black"/>
<path fill-rule="evenodd" clip-rule="evenodd" d="M75.2537 61.7825C75.6215 61.7397 75.994 61.7974 76.332 61.9495C76.6699 62.1015 76.9609 62.3423 77.1744 62.6466C75.2537 66.2112 76.5239 70.6804 77.0455 72.4882L75.3193 72.7856C73.7262 69.5944 72.867 63.682 75.2537 61.7825Z" fill="#8BC53F"/>
<path fill-rule="evenodd" clip-rule="evenodd" d="M69.76 64.3129C69.8546 63.5529 70.815 63.0926 72.9054 61.886C71.841 64.5687 72.1656 69.6081 73.8373 72.7368C72.7256 72.9937 72.2407 72.3681 71.3945 72.2611C70.7653 71.2108 68.8186 70.832 69.76 64.3129Z" fill="#8BC53F"/>
<path fill-rule="evenodd" clip-rule="evenodd" d="M66.7139 68.4395C68.3353 67.9435 68.8256 66.1588 68.7871 66.4514C68.4554 68.8896 69.0698 69.9006 69.3152 70.2687C68.3917 69.7443 67.5206 69.1317 66.7139 68.4395Z" fill="#8BC53F"/>
<path d="M87.9193 61.5582C87.2393 64.389 81.3323 63.664 82.2601 61.3257C81.8556 62.5282 80.7764 62.3831 80.7847 63.1199C80.8601 63.4983 81.0264 63.8525 81.2691 64.1515C81.5118 64.4504 81.8237 64.6851 82.1773 64.835C82.8459 65.053 83.566 65.053 84.2346 64.835C84.622 64.3111 89.0967 63.3316 87.9193 61.5582ZM81.926 62.8701C82.4417 63.8133 83.6285 63.8008 84.5191 64.2153C83.4269 65.5439 80.4175 63.9644 81.926 62.8701Z" fill="black"/>
<path d="M87.8454 56.3274C86.7118 58.6788 90.5485 58.0294 88.707 56.1841L87.8454 56.3274Z" fill="black"/>
<path d="M86.5138 53.0222C85.9491 51.6752 86.7504 49.1216 87.4162 47.8126C88.7172 48.11 90.2689 46.7303 89.6675 45.347C89.2423 44.5977 88.4138 45.3714 87.7752 46.0012C87.1365 46.631 85.3305 50.8426 85.7971 54.0355C84.8486 53.472 83.7804 53.1435 82.6807 53.0769C82.1118 50.977 82.4501 49.5236 82.7174 48.0136C84.0946 47.573 86.1631 45.6438 84.4488 44.8933C82.7345 44.1428 81.5844 50.5476 82.1485 53.0186C81.1532 53.2934 80.2872 53.9147 79.7051 54.7718C79.9694 47.8971 71.0767 45.5456 68.7125 50.983C57.6638 50.8289 62.0303 64.5694 69.1206 64.0068C68.5499 66.0603 67.7238 67.9318 65.1473 68.5491C66.6363 68.9898 69.9023 71.9817 70.7556 72.4622C71.6089 72.9427 74.7058 74.2362 77.4378 73.0135C77.5011 73.0587 78.7151 72.1678 79.0427 71.9734C79.6211 71.6154 80.152 71.1851 80.6228 70.693C80.8783 70.3314 81.5016 69.563 81.459 68.7602C82.7866 68.4361 83.129 68.3243 83.8244 67.6939C84.5299 67.0588 85.6185 65.5037 85.2016 65.622C84.7847 65.7403 82.951 66.247 80.2059 64.8067C81.7925 65.4287 83.3708 66.0555 85.3412 65.4246C86.3145 65.2265 88.2601 64.8608 89.1335 64.6051C89.1386 64.6081 89.1442 64.6103 89.15 64.6116C89.2039 64.592 89.2446 64.5718 89.2985 64.5521C89.3724 64.526 89.438 64.5004 89.4883 64.4778C93.3669 62.8834 91.8702 59.273 91.7052 58.9103C93.4544 55.973 91.1665 51.0412 86.5138 53.0222ZM89.218 45.529C90.017 45.8787 88.5421 47.9143 87.528 47.3797C87.1164 47.1531 88.5877 45.5284 89.2151 45.5314L89.218 45.529ZM84.3377 45.3553C84.8776 45.8953 84.0367 47.08 83.2703 47.3523C82.5033 47.639 83.806 44.8124 84.3377 45.3577V45.3553ZM83.1047 53.8916C87.3139 54.277 85.8503 59.8314 83.5997 60.3571C79.0587 61.4169 78.2568 53.4533 83.1047 53.894V53.8916ZM69.0259 63.4234C65.8806 62.4196 62.7027 61.2825 62.3437 57.1167C61.6394 48.9913 75.8578 50.3086 74.5343 61C71.7609 61.1398 70.8786 62.6289 69.0259 63.4258V63.4234ZM66.7138 68.426C68.3352 67.9294 68.8302 66.1453 68.7888 66.4403C68.46 68.8732 69.0697 69.8895 69.321 70.2547C68.395 69.7325 67.5218 69.1209 66.7138 68.4284V68.426ZM71.3919 72.2475C70.7716 71.2002 68.8225 70.8238 69.7639 64.3024C69.8568 63.5417 70.8148 63.0826 72.904 61.873C71.8396 64.5575 72.1666 69.5981 73.8348 72.7262C72.726 72.9855 72.2435 72.3593 71.3919 72.2499V72.2475ZM77.047 72.4777L75.3244 72.7679C73.7277 69.5862 72.8673 63.669 75.2564 61.7713C75.624 61.7287 75.9963 61.7864 76.3341 61.9384C76.672 62.0903 76.9629 62.3309 77.1765 62.6348C75.2593 66.1989 76.5236 70.6716 77.047 72.48V72.4777ZM76.6921 61.5281C76.234 61.2439 75.6928 61.1262 75.1588 61.1945C74.7691 55.42 72.3126 52.5714 69.0011 50.9282C75.5101 42.684 83.1094 56.8746 76.6927 61.5305L76.6921 61.5281ZM88.8502 64.1822C88.2281 64.3892 86.2087 64.7068 85.6067 64.8596C85.1518 65.0491 84.6708 65.168 84.1804 65.2122C83.6976 65.2202 83.2147 65.2016 82.7339 65.1563C82.1695 65.0217 81.6131 64.8547 81.0675 64.6562C78.9753 64.272 77.6135 60.3649 79.4709 58.6765C80.925 60.6985 81.799 61.38 83.6955 60.9364C84.6842 60.7051 85.5133 59.1029 86.0449 59.0512C86.5335 59.4739 87.1074 59.7852 87.727 59.9637C88.3466 60.1422 88.9973 60.1837 89.6344 60.0854C90.0956 59.9453 90.5354 59.7417 90.9412 59.4806C90.9655 59.4645 90.9874 59.4526 91.0075 59.4366C92.3137 62.636 89.4859 63.9366 88.8508 64.1846L88.8502 64.1822ZM86.282 58.711C86.7282 57.2633 86.6256 55.7007 85.994 54.3246C92.9524 48.9051 94.057 63.6286 86.2826 58.7146L86.282 58.711Z" fill="black"/>
<path d="M82.3955 56.6948L81.531 56.8429C80.3973 59.1908 84.2346 58.5396 82.3955 56.6948Z" fill="black"/>
<path d="M87.9568 71.1549C84.1604 71.5716 80.482 72.733 77.1299 74.5732C77.1299 74.5732 78.2221 80.2395 78.801 80.1669C79.3799 80.0944 87.8208 79.5306 88.7315 79.0209C89.091 78.8195 89.3921 78.5275 89.6055 78.1736C89.8189 77.8198 89.9371 77.4162 89.9485 77.0025C90.1171 75.0067 90.0989 72.9993 89.8941 71.0068C89.8491 70.6191 87.9568 71.1549 87.9568 71.1549ZM89.56 76.9776C89.5478 77.3697 89.4351 77.752 89.2329 78.0875C89.0307 78.423 88.7457 78.7003 88.4057 78.8925C87.5447 79.3682 79.5573 79.9035 79.0092 79.9742C78.461 80.045 77.4285 74.6814 77.4285 74.6814C80.6 72.9399 84.0799 71.8398 87.6718 71.4433C87.6718 71.4433 89.4606 70.9396 89.5103 71.3042C89.6984 73.1898 89.715 75.0888 89.56 76.9776Z" fill="#8BC53F"/>
<path d="M86.1436 71.3536C84.2472 71.5915 79.349 72.2034 79.349 72.2034C78.119 72.923 76.5106 74.7261 77.5224 74.697C78.5342 74.6678 87.8207 73.4077 87.8207 73.4077C88.5682 72.7885 89.2294 72.0708 89.7863 71.2739C90.1955 70.4693 88.0436 71.1157 86.1436 71.3536ZM89.2387 71.3536C88.7269 72.0839 88.1197 72.7416 87.4333 73.309C87.4333 73.309 78.9103 74.4651 77.9848 74.4936C77.0594 74.5221 78.5312 72.8689 79.6559 72.2058C79.6559 72.2058 84.1502 71.6462 85.8917 71.4256C87.6332 71.2049 89.613 70.6156 89.2387 71.3536Z" fill="#8BC53F"/>
<path d="M85.8918 71.4261C84.1521 71.6468 79.656 72.2064 79.656 72.2064C78.5325 72.8694 77.0577 74.5257 77.9849 74.4942C78.9121 74.4626 87.4334 73.3095 87.4334 73.3095C88.1198 72.7422 88.727 72.0845 89.2388 71.3542C89.6131 70.6155 87.6392 71.2108 85.8918 71.4261Z" fill="white"/>
<path d="M87.5981 73.6133L88.2575 78.7205L89.3379 76.7229L88.3066 77.1327L87.5981 73.6133Z" fill="#8BC53F"/>
<path d="M86.1674 73.646L87.0739 77.7922C87.0739 77.7922 86.1183 77.1886 86.1674 73.646Z" fill="#8BC53F"/>
<path d="M80.4665 74.9812L81.4127 79.4866C81.4127 79.4866 80.4505 78.8176 80.4665 74.9812Z" fill="#8BC53F"/>
<path d="M81.168 74.3271L81.8936 77.0627C81.8936 77.0627 80.974 76.6958 81.168 74.3271Z" fill="#8BC53F"/>
<path d="M85.1939 74.4817L86.1507 78.9919C86.1507 78.9919 85.1827 78.3246 85.1939 74.4817Z" fill="#8BC53F"/>
<path d="M84.2345 74.6042L85.1807 79.112C85.1807 79.112 84.2215 78.449 84.2345 74.6042Z" fill="#8BC53F"/>
<path d="M83.2742 74.7268L84.2203 79.2328C84.2203 79.2328 83.257 78.5691 83.2742 74.7268Z" fill="#8BC53F"/>
<path d="M78.248 76.6082L85.4033 75.3213C85.4033 75.3213 84.2839 76.3489 78.248 76.6082Z" fill="#8BC53F"/>
<path d="M79.1309 77.6781L87.4688 76.2437C87.4688 76.2437 86.1519 77.2921 79.1309 77.6781Z" fill="#8BC53F"/>
<path d="M79.4272 78.8241L87.6186 77.4087C87.6186 77.4087 86.3176 78.4524 79.4272 78.8241Z" fill="#8BC53F"/>
<path d="M85.2443 70.0154C85.0439 69.9831 84.8389 69.9985 84.6456 70.0605C84.4522 70.1225 84.2761 70.2292 84.1314 70.3722L80.2072 68.9675L79.0381 70.49C79.0381 70.49 81.3207 72.3662 83.8871 71.9113C83.9892 72.1098 84.1401 72.2787 84.3255 72.4019C84.5109 72.5252 84.7246 72.5986 84.9462 72.6152C85.1678 72.6317 85.39 72.591 85.5915 72.4967C85.793 72.4024 85.9671 72.2579 86.0973 72.0767C86.2274 71.8956 86.3093 71.6839 86.335 71.4619C86.3607 71.2399 86.3295 71.015 86.2442 70.8086C86.159 70.6022 86.0226 70.4212 85.8481 70.2829C85.6736 70.1446 85.4667 70.0535 85.2472 70.0184L85.2443 70.0154Z" fill="black"/>
<path d="M82.153 74.1172L82.7627 74.0422C82.7627 74.0422 82.6444 69.9793 83.5373 69.7414C83.5332 69.7176 82.726 69.6462 82.726 69.6462C82.1613 71.0426 81.9312 72.553 82.0542 74.0553" fill="#8BC53F"/>
<path d="M83.9915 67.9567C84.1565 68.8006 83.2411 69.6956 81.939 69.9495C80.6368 70.2035 79.4553 69.7265 79.2927 68.8832C79.1301 68.04 80.0431 67.1432 81.3411 66.8857C82.6391 66.6282 83.8218 67.1087 83.9915 67.9567Z" fill="black"/>
<g clip-path="url(#clip0_3_1142)">
<path d="M49.7332 56.0579C49.6526 56.0155 49.562 55.9958 49.471 56.0011C49.3801 56.0064 49.2923 56.0364 49.2172 56.0879L41.2172 61.5879C41.1504 61.6339 41.0957 61.6954 41.058 61.7672C41.0202 61.839 41.0005 61.9188 41.0005 61.9999C41.0005 62.081 41.0202 62.1609 41.058 62.2327C41.0957 62.3045 41.1504 62.366 41.2172 62.4119L49.2172 67.9119C49.3005 67.9692 49.3991 67.9999 49.5002 67.9999C49.5815 68.0001 49.6615 67.9802 49.7332 67.9419C49.8137 67.8995 49.8811 67.836 49.9282 67.7581C49.9752 67.6802 50.0001 67.5909 50.0002 67.4999V56.4999C50.0001 56.4089 49.9752 56.3197 49.9282 56.2418C49.8811 56.1639 49.8137 56.1003 49.7332 56.0579Z" fill="#E2E2E2"/>
</g>
<defs>
<filter id="filter0_d_3_1142" x="0" y="0" width="130" height="124" filterUnits="userSpaceOnUse" color-interpolation-filters="sRGB">
<feFlood flood-opacity="0" result="BackgroundImageFix"/>
<feColorMatrix in="SourceAlpha" type="matrix" values="0 0 0 0 0 0 0 0 0 0 0 0 0 0 0 0 0 0 127 0" result="hardAlpha"/>
<feOffset dx="-2"/>
<feGaussianBlur stdDeviation="15"/>
<feColorMatrix type="matrix" values="0 0 0 0 0 0 0 0 0 0 0 0 0 0 0 0 0 0 0.1 0"/>
<feBlend mode="normal" in2="BackgroundImageFix" result="effect1_dropShadow_3_1142"/>
<feBlend mode="normal" in="SourceGraphic" in2="effect1_dropShadow_3_1142" result="shape"/>
</filter>
<clipPath id="clip0_3_1142">
<rect width="12" height="12" fill="white" transform="translate(40 56)"/>
</clipPath>
</defs>
</svg>
